<svg xmlns="http://www.w3.org/2000/svg" version="1.0" viewBox="0 0 112.5 112.5"><style>.fill{fill:#1f2225}.stroke{stroke:#1f2225}@media (prefers-color-scheme:dark){.fill{fill:#e8e8e8}.stroke{stroke:#e8e8e8}}</style><defs><clipPath id="a0944205df"><path d="M6.023 6.023h99.95v99.95H6.023Zm0 0"/></clipPath><clipPath id="dfc69f207f"><path d="M56 6.023C28.398 6.023 6.023 28.398 6.023 56c0 27.598 22.375 49.973 49.977 49.973 27.598 0 49.973-22.375 49.973-49.973 0-27.602-22.375-49.977-49.973-49.977Zm0 0"/></clipPath><clipPath id="7bb868ff8e"><path d="M64 32h6v4h-6Zm0 0"/></clipPath><clipPath id="153ac00e55"><path d="m65.414 31.96 3.93 2.173-1.18 2.133-3.93-2.176Zm0 0"/></clipPath><clipPath id="263505f104"><path d="m66.066 32.324 2.614 1.446c.175.093.3.253.355.445a.745.745 0 0 1-.062.57l-.457.82a.735.735 0 0 1-1.012.293l-2.613-1.445a.75.75 0 0 1-.36-.45.737.737 0 0 1 .067-.566l.457-.824a.738.738 0 0 1 1.011-.289Zm0 0"/></clipPath><clipPath id="b102c629fc"><path d="M56 34h12v17H56Zm0 0"/></clipPath><clipPath id="3aea893128"><path d="m64 34.516 3.918 2.172-8.004 14.468-3.922-2.168Zm0 0"/></clipPath><clipPath id="88091690b7"><path d="m64.652 34.879 2.614 1.445a.753.753 0 0 1 .293 1.016L60.28 50.492a.743.743 0 0 1-.449.356.734.734 0 0 1-.566-.063l-2.614-1.445a.743.743 0 0 1-.355-.45.736.736 0 0 1 .062-.566l7.278-13.152a.743.743 0 0 1 .449-.356.734.734 0 0 1 .566.063Zm0 0"/></clipPath><clipPath id="c2c89fe1fa"><path d="M55 49h5v5h-5Zm0 0"/></clipPath><clipPath id="1562654eca"><path d="m56.031 49.55 3.387 1.88-1.688 3.054-3.39-1.879Zm0 0"/></clipPath><clipPath id="469d30dc4c"><path d="m56.46 53.531 2.583-1.57a.445.445 0 0 0 .21-.379.433.433 0 0 0-.226-.371l-2.613-1.445a.423.423 0 0 0-.43.007.426.426 0 0 0-.21.375l.038 3.024a.428.428 0 0 0 .649.36Zm0 0"/></clipPath><clipPath id="7eede6c9d8"><path d="M55.105 54.133h32.243v3.734H55.105Zm0 0"/></clipPath><clipPath id="57ee84a90c"><path d="M56.598 54.133h29.254a1.493 1.493 0 0 1 1.492 1.496v.746a1.49 1.49 0 0 1-1.492 1.492H56.598a1.49 1.49 0 0 1-1.493-1.492v-.746a1.493 1.493 0 0 1 1.493-1.496Zm0 0"/></clipPath><clipPath id="6e533f3fae"><path d="M92.762 54.133h5.336v3.734h-5.336Zm0 0"/></clipPath><clipPath id="dbae6b9334"><path d="M94.625 54.133h1.602a1.866 1.866 0 0 1 0 3.734h-1.602a1.866 1.866 0 0 1 0-3.734Zm0 0"/></clipPath><clipPath id="b97c234640"><path d="M13.91 54.133h5.34v3.734h-5.34Zm0 0"/></clipPath><clipPath id="330881019"><path d="M15.777 54.133h1.598a1.867 1.867 0 1 1 0 3.734h-1.598a1.867 1.867 0 1 1 0-3.734Zm0 0"/></clipPath><clipPath id="9a0466d966"><path d="M54.129 13.898h3.734v5.34H54.13Zm0 0"/></clipPath><clipPath id="4a6655fbb5"><path d="M54.129 17.371v-1.598a1.867 1.867 0 1 1 3.734 0v1.598a1.867 1.867 0 1 1-3.734 0Zm0 0"/></clipPath><clipPath id="c9ed81555e"><path d="M54.129 92.953h3.734v5.133H54.13Zm0 0"/></clipPath><clipPath id="c136c3e3be"><path d="M54.129 96.223v-1.399a1.867 1.867 0 1 1 3.734 0v1.399a1.866 1.866 0 0 1-3.734 0Zm0 0"/></clipPath><clipPath id="faa6f76fbf"><path d="M81 81h6v6h-6Zm0 0"/></clipPath><clipPath id="219a8074d6"><path d="m83.281 80.645 3.805 3.804-2.64 2.64-3.805-3.804Zm0 0"/></clipPath><clipPath id="37c2e966a9"><path d="m84.602 81.965 1.16 1.164c.73.726.73 1.91 0 2.637-.73.73-1.91.73-2.64 0l-1.161-1.16a1.866 1.866 0 1 1 2.64-2.641Zm0 0"/></clipPath><clipPath id="f116319f2c"><path d="M25 25h6v6h-6Zm0 0"/></clipPath><clipPath id="88f015a614"><path d="m27.559 24.922 3.804 3.805-2.64 2.64-3.805-3.805Zm0 0"/></clipPath><clipPath id="91ccde0ceb"><path d="m28.879 26.242 1.16 1.16a1.866 1.866 0 1 1-2.64 2.641l-1.16-1.16a1.863 1.863 0 0 1 0-2.64 1.863 1.863 0 0 1 2.64 0Zm0 0"/></clipPath><clipPath id="f54f714d5f"><path d="M81 25h6v6h-6Zm0 0"/></clipPath><clipPath id="41642e435a"><path d="m80.64 28.719 3.805-3.809 2.64 2.64-3.804 3.805Zm0 0"/></clipPath><clipPath id="7daba3f94e"><path d="m81.96 27.398 1.161-1.164a1.872 1.872 0 0 1 2.64 0c.731.73.731 1.91 0 2.641l-1.16 1.16c-.73.73-1.91.73-2.64 0a1.86 1.86 0 0 1 0-2.637Zm0 0"/></clipPath><clipPath id="3708991618"><path d="M25 81h6v6h-6Zm0 0"/></clipPath><clipPath id="ae8a205295"><path d="m24.918 84.441 3.805-3.804 2.64 2.636-3.804 3.809Zm0 0"/></clipPath><clipPath id="16eb56b2cb"><path d="m26.238 83.121 1.16-1.164a1.872 1.872 0 0 1 2.641 0c.73.73.73 1.914 0 2.64l-1.16 1.165a1.872 1.872 0 0 1-2.64 0 1.865 1.865 0 0 1 0-2.64Zm0 0"/></clipPath></defs><g clip-path="url(#a0944205df)"><g clip-path="url(#dfc69f207f)"><path fill="none" stroke-width="14" d="M66.932 0C29.967 0 .001 29.968.001 66.933c0 36.96 29.966 66.927 66.931 66.927 36.96 0 66.927-29.966 66.927-66.927 0-36.965-29.966-66.931-66.927-66.931Zm0 0" class="stroke" transform="translate(6.023 6.023)scale(.74668)"/></g></g><g clip-path="url(#7bb868ff8e)"><g clip-path="url(#153ac00e55)"><g clip-path="url(#263505f104)"><path d="m65.414 31.96 3.918 2.169-1.176 2.133-3.922-2.172Zm0 0" class="fill"/></g></g></g><g clip-path="url(#b102c629fc)"><g clip-path="url(#3aea893128)"><g clip-path="url(#88091690b7)"><path d="m64 34.516 3.918 2.172-7.996 14.453L56 48.973Zm0 0" class="fill"/></g></g></g><g clip-path="url(#c2c89fe1fa)"><g clip-path="url(#1562654eca)"><g clip-path="url(#469d30dc4c)"><path d="m55.762 49.402 3.925 2.172-1.898 3.434-3.926-2.176Zm0 0" class="fill"/></g></g></g><g clip-path="url(#7eede6c9d8)"><g clip-path="url(#57ee84a90c)"><path d="M55.105 54.133h32.243v3.734H55.105Zm0 0" class="fill"/></g></g><g clip-path="url(#6e533f3fae)"><g clip-path="url(#dbae6b9334)"><path d="M92.762 54.133h5.336v3.734h-5.336Zm0 0" class="fill"/></g></g><g clip-path="url(#b97c234640)"><g clip-path="url(#0330881019)"><path d="M13.91 54.133h5.34v3.734h-5.34Zm0 0" class="fill"/></g></g><g clip-path="url(#9a0466d966)"><g clip-path="url(#4a6655fbb5)"><path d="M54.129 19.238v-5.34h3.734v5.34Zm0 0" class="fill"/></g></g><g clip-path="url(#c9ed81555e)"><g clip-path="url(#c136c3e3be)"><path d="M54.129 98.086v-5.133h3.734v5.133Zm0 0" class="fill"/></g></g><g clip-path="url(#faa6f76fbf)"><g clip-path="url(#219a8074d6)"><g clip-path="url(#37c2e966a9)"><path d="m83.281 80.645 3.805 3.804-2.64 2.64-3.805-3.804Zm0 0" class="fill"/></g></g></g><g clip-path="url(#f116319f2c)"><g clip-path="url(#88f015a614)"><g clip-path="url(#91ccde0ceb)"><path d="m27.559 24.922 3.804 3.805-2.64 2.64-3.805-3.805Zm0 0" class="fill"/></g></g></g><g clip-path="url(#f54f714d5f)"><g clip-path="url(#41642e435a)"><g clip-path="url(#7daba3f94e)"><path d="m80.64 28.719 3.805-3.809 2.64 2.64-3.804 3.805Zm0 0" class="fill"/></g></g></g><g clip-path="url(#3708991618)"><g clip-path="url(#ae8a205295)"><g clip-path="url(#16eb56b2cb)"><path d="m24.918 84.441 3.805-3.804 2.64 2.636-3.804 3.809Zm0 0" class="fill"/></g></g></g></svg>